<svg width="21" height="21" viewBox="0 0 21 21" fill="none" xmlns="http://www.w3.org/2000/svg">
<path d="M3.92996 18.07C2.97486 17.1475 2.21303 16.044 1.68894 14.824C1.16485 13.604 0.888991 12.2918 0.877453 10.964C0.865915 9.63618 1.11893 8.31938 1.62174 7.09042C2.12455 5.86145 2.86708 4.74493 3.80601 3.80601C4.74493 2.86708 5.86145 2.12455 7.09042 1.62174C8.31938 1.11893 9.63618 0.865915 10.964 0.877453C12.2918 0.888991 13.604 1.16485 14.824 1.68894C16.044 2.21303 17.1475 2.97486 18.07 3.92996C19.8915 5.81598 20.8995 8.342 20.8767 10.964C20.8539 13.5859 19.8022 16.0941 17.9481 17.9481C16.0941 19.8022 13.5859 20.8539 10.964 20.8767C8.342 20.8995 5.81598 19.8915 3.92996 18.07ZM16.66 16.66C18.1611 15.1588 19.0044 13.1229 19.0044 11C19.0044 8.87705 18.1611 6.84108 16.66 5.33996C15.1588 3.83883 13.1229 2.99551 11 2.99551C8.87705 2.99551 6.84108 3.83883 5.33996 5.33996C3.83883 6.84108 2.99551 8.87705 2.99551 11C2.99551 13.1229 3.83883 15.1588 5.33996 16.66C6.84108 18.1611 8.87705 19.0044 11 19.0044C13.1229 19.0044 15.1588 18.1611 16.66 16.66ZM9.99996 5.99996H12V12H9.99996V5.99996ZM9.99996 14H12V16H9.99996V14Z" fill="#5BC0BE"/>
</svg>
